<svg width="74" height="70" viewBox="0 0 74 70" fill="none" xmlns="http://www.w3.org/2000/svg">
<path d="M0 70H73.551V55.1H0V70ZM62.7347 64.4C62.7347 63.9 62.7347 63.6 62.8429 63.3C62.951 63.1 63.0592 62.8 63.2755 62.7C63.4918 62.5 63.9245 62.4 64.4653 62.3C63.7082 62.3 63.2755 62.1 63.0592 61.8C62.8429 61.5 62.7347 61 62.7347 60.3C62.7347 59.7 62.8429 59.2 63.0592 58.8C63.2755 58.4 63.4918 58.2 63.9245 58C64.249 57.8 64.6816 57.8 65.2225 57.7C65.6551 57.7 66.5204 57.7 67.4939 57.7H69.6572V67.1H66.5204V62.9C66.0878 62.9 65.8714 63 65.7633 63.1C65.6551 63.2 65.5469 63.4 65.5469 63.8V67.2H62.6265V64.4H62.7347ZM54.5143 57.7H57.1102V62L58.8408 57.7H61.4367V67.1H58.8408V62.9L57.2184 67.2H54.5143V57.7ZM43.8061 57.7H47.8082C47.9163 58.3 48.0245 58.9 48.1327 59.7L48.5653 62.1L49.3225 57.7H53.3245V67.1H50.6204V60.7L49.5388 67.1H47.5918L46.5102 60.9V67.1H43.8061V57.7ZM37.5327 57.7H42.7245V59.6H40.6694V61.4H42.6163V63.2H40.6694V65.3H42.9408V67.2H37.5327V57.7ZM27.2571 65.2H27.9061C28.2306 64.4 28.5551 63.4 28.7714 62.2C28.9878 60.9 29.0959 59.6 29.0959 58.1V57.8H36.0184V65.2H36.6674V68.8H34.5041V67.2H29.5286V68.8H27.3653V65.2H27.2571ZM11.898 57.7H15.0347V61.7C15.5755 61.7 15.9 61.4 15.9 60.9L16.0082 59.1C16.0082 58.4 16.2245 58 16.549 57.7H19.3612C19.0367 57.9 18.9286 58.4 18.9286 59.1V60.7C18.9286 61.7 18.2796 62.2 16.8735 62.4C18.2796 62.5 18.9286 63.1 18.9286 64.1V65.6C18.9286 66.3 19.0367 66.7 19.2531 67L20.8755 57.7H25.3102L27.0408 67.1H23.9041L23.6878 65.4H22.6061L22.3898 67.1H19.3612C19.3612 67.1 19.3612 67.1 19.2531 67V67.1H16.4408C16.1163 66.9 15.9 66.4 15.9 65.7V63.9C15.9 63.7 15.7918 63.5 15.6837 63.3C15.4673 63.2 15.251 63.1 15.0347 63.1V67.1H11.898V57.7ZM5.19184 57.7H9.62653L11.3571 67.1H8.22041L8.00408 65.4H6.92245L6.70612 67.1H3.46122L5.19184 57.7Z" fill="#095FA8"/>
<path d="M43.2653 53.8V48.8H44.5633V47.5H39.8041V48.8H41.102V53.8H43.2653Z" fill="#095FA8"/>
<path d="M50.0796 50.8V49.9C50.0796 49.3 49.9714 48.8 49.8633 48.5C49.6469 48.2 49.4306 47.9 48.998 47.7C48.5653 47.5 48.0245 47.4 47.4837 47.4C46.9428 47.4 46.5102 47.5 46.0775 47.7C45.6449 47.9 45.4286 48.1 45.2122 48.4C44.9959 48.7 44.9959 49.1 44.9959 49.7V51.5C44.9959 52 44.9959 52.3 45.1041 52.6C45.2122 52.8 45.3204 53.1 45.5367 53.3C45.7531 53.5 45.9694 53.7 46.402 53.8C46.7265 53.9 47.1592 54 47.7 54C48.2408 54 48.5653 53.9 48.8898 53.8C49.2143 53.7 49.4306 53.5 49.6469 53.3C49.8633 53.1 49.9714 52.8 50.0796 52.6C50.1877 52.4 50.1877 52.1 50.1877 51.7V51.2H48.0245V52C48.0245 52.3 48.0245 52.5 47.9163 52.6C47.8082 52.7 47.7 52.8 47.5918 52.8C47.4837 52.8 47.3755 52.8 47.2673 52.7C47.2673 52.6 47.1592 52.4 47.1592 52.2V50.8H50.0796ZM47.2673 49.3C47.2673 48.9 47.2673 48.7 47.3755 48.7C47.3755 48.6 47.4837 48.6 47.7 48.6C47.8082 48.6 47.9163 48.6 47.9163 48.7C47.9163 48.8 48.0245 49 48.0245 49.3V49.8H47.3755V49.3H47.2673Z" fill="#095FA8"/>
<path d="M32.7735 59.6H31.8V59.7C31.8 61.5 31.5837 63.3 31.0428 65.2H32.6653V59.6H32.7735Z" fill="#095FA8"/>
<path d="M73.551 53.8V47.5H71.9286C70.5224 47.5 69.6571 47.6 69.2245 47.9C68.7918 48.2 68.5755 48.6 68.5755 49.2C68.5755 49.8 68.6837 50.2 68.7918 50.4C68.9 50.6 69.3326 50.7 69.8735 50.8C69.4408 50.9 69.1163 51 69.0082 51.1C68.7918 51.2 68.6837 51.3 68.6837 51.5C68.6837 51.7 68.5755 51.9 68.5755 52.3V53.8H70.6306V52.1C70.6306 51.8 70.6306 51.6 70.7388 51.5C70.8469 51.4 71.0633 51.3 71.3877 51.3V53.8H73.551ZM70.7388 50.1C70.6306 50 70.6306 49.8 70.6306 49.5V49.4C70.6306 49.1 70.6306 48.9 70.7388 48.8C70.8469 48.7 70.9551 48.7 71.1714 48.7H71.2796V50.2C71.0633 50.2 70.8469 50.2 70.7388 50.1Z" fill="#095FA8"/>
<path d="M61.9776 39.2L62.0857 13.1L73.4429 13L73.551 6.79999H53V40.5V44.7H61.9776V39.2Z" fill="#095FA8"/>
<path d="M50.8367 47.5V54.6H53.1082V53.2C53.3245 53.4 53.5408 53.6 53.7571 53.7C53.9735 53.8 54.298 53.9 54.5143 53.9C54.8388 53.9 55.1633 53.8 55.3796 53.7C55.5959 53.6 55.8122 53.4 55.8122 53.1C55.9204 52.9 55.9204 52.5 55.9204 51.9V49.3C55.9204 48.8 55.9204 48.5 55.8122 48.2C55.7041 48 55.5959 47.8 55.3796 47.6C55.1633 47.4 54.8388 47.4 54.5143 47.4C54.1898 47.4 53.9735 47.5 53.7571 47.6C53.5408 47.7 53.3245 47.9 53.1082 48.1V47.5H50.8367ZM53.1082 48.7C53.1082 48.6 53.2163 48.6 53.4327 48.6C53.5408 48.6 53.649 48.6 53.7571 48.7C53.7571 48.8 53.7571 49 53.7571 49.4V52.1C53.7571 52.4 53.7571 52.6 53.7571 52.7C53.7571 52.8 53.649 52.8 53.4327 52.8C53.3245 52.8 53.2163 52.8 53.1082 52.7C53.1082 52.6 53 52.4 53 52V49.4C53.1082 49 53.1082 48.7 53.1082 48.7Z" fill="#095FA8"/>
<path d="M67.7102 53.8V50.7C67.7102 49.7 67.7102 49 67.602 48.6C67.4939 48.3 67.2775 48 66.9531 47.8C66.5204 47.6 65.9796 47.5 65.2224 47.5C64.5735 47.5 64.0326 47.6 63.7082 47.8C63.2755 48 63.0592 48.2 62.951 48.5C62.8428 48.8 62.7347 49.1 62.7347 49.6V49.9H64.7898V49.2C64.7898 48.8 64.7898 48.6 64.8979 48.5C64.8979 48.4 65.0061 48.4 65.2224 48.4C65.3306 48.4 65.4388 48.5 65.5469 48.6C65.6551 48.7 65.6551 48.9 65.6551 49.2C65.6551 49.5 65.6551 49.6 65.5469 49.7C65.5469 49.8 65.1143 49.9 64.3571 50.2C63.7081 50.4 63.2755 50.6 63.0592 50.8C62.8428 51 62.8428 51.3 62.8428 51.8V52.3C62.8428 52.9 63.0592 53.3 63.3837 53.5C63.7082 53.7 64.0326 53.8 64.4653 53.8C64.7898 53.8 65.0061 53.7 65.2224 53.6C65.4388 53.5 65.6551 53.3 65.7633 53.1V53.7H67.7102V53.8ZM65.5469 52.1C65.5469 52.4 65.5469 52.6 65.4388 52.7C65.4388 52.8 65.3306 52.8 65.1143 52.8C65.0061 52.8 64.8979 52.8 64.7898 52.7C64.7898 52.6 64.6816 52.4 64.6816 52.1C64.6816 51.8 64.6816 51.6 64.7898 51.4C64.8979 51.3 65.0061 51.1 65.4388 50.8V52.1H65.5469Z" fill="#095FA8"/>
<path d="M61.9775 53.8V47.5H59.8143V49.8H58.949V47.5H56.7857V53.8H58.949V51.5H59.8143V53.8H61.9775Z" fill="#095FA8"/>
<path d="M37.1 44.7L37.6408 41.4L38.398 36.8H42.5082L43.049 41.2L43.3735 44.6H50.9449L50.4041 40.7L46.7265 12.9H36.3429L31.3674 41.3L30.8265 44.6H37.1V44.7ZM40.6694 18.1L40.8857 18.2L41.9674 32H39.2633L40.6694 18.1Z" fill="#095FA8"/>
<path d="M18.6041 53.8V47.5H15.7918L15.1429 51L14.3857 47.5H11.6816V53.8H13.5204V49.5L14.4939 53.8H15.6837L16.6572 49.5V53.8H18.6041Z" fill="#095FA8"/>
<path d="M9.51838 47.6C9.19389 47.5 8.76124 47.4 8.22042 47.4C7.57144 47.4 7.13879 47.5 6.70614 47.7C6.38165 47.9 6.16532 48.2 5.94899 48.5C5.84083 48.8 5.73267 49.3 5.73267 49.9V51.5C5.73267 52 5.73267 52.4 5.84083 52.7C5.94899 53 6.05716 53.2 6.27348 53.4C6.48981 53.6 6.70614 53.7 7.03063 53.8C7.46328 53.8 7.89593 53.9 8.32859 53.9C8.76124 53.9 9.19389 53.8 9.51838 53.7C9.84287 53.6 10.1674 53.4 10.3837 53.2C10.6 53 10.7082 52.7 10.8163 52.5C10.9245 52.2 10.9245 51.8 10.9245 51.3V49.8C10.9245 49.4 10.9245 49 10.8163 48.8C10.7082 48.6 10.6 48.4 10.3837 48.2C10.1674 47.9 9.95103 47.7 9.51838 47.6ZM8.65308 52.1C8.65308 52.4 8.65307 52.5 8.54491 52.6C8.54491 52.7 8.43675 52.7 8.32859 52.7C8.22042 52.7 8.11226 52.7 8.11226 52.6C8.11226 52.5 8.0041 52.3 8.0041 52V49.2C8.0041 48.9 8.0041 48.7 8.11226 48.6C8.11226 48.5 8.22042 48.5 8.32859 48.5C8.43675 48.5 8.54491 48.5 8.54491 48.6C8.54491 48.7 8.65308 48.9 8.65308 49.2V52.1Z" fill="#095FA8"/>
<path d="M3.13673 53.8H5.3C5.08367 53.6 5.08367 53.3 5.08367 52.9V51.8C5.08367 51.3 4.65102 50.9 3.89388 50.7C3.56939 50.6 3.2449 50.6 3.13673 50.5C3.46122 50.5 3.67755 50.4 3.89388 50.4C4.21837 50.3 4.43469 50.2 4.54286 50.1C4.86735 49.9 4.97551 49.6 4.97551 49.3V48.4C4.97551 48 5.08367 47.7 5.19184 47.5H3.13673C2.92041 47.6 2.92041 47.8 2.92041 48.2V49.3C2.92041 49.7 2.70408 49.9 2.16326 49.9V47.5H0V53.8H2.16326V51.1C2.59592 51.1 2.92041 51.3 2.92041 51.7V53C2.92041 53.3 3.02857 53.6 3.13673 53.8Z" fill="#095FA8"/>
<path d="M23.2551 59.8C22.9306 61.6 22.7143 62.9 22.6061 63.8H23.6877C23.5796 62.7 23.4714 61.4 23.2551 59.8Z" fill="#095FA8"/>
<path d="M66.5204 61.4V59.3H66.4122C66.1959 59.3 65.9796 59.3 65.8714 59.4C65.7633 59.5 65.6551 59.7 65.6551 60V60.5C65.6551 60.8 65.6551 61.1 65.8714 61.2C65.8714 61.4 66.0877 61.4 66.5204 61.4Z" fill="#095FA8"/>
<path d="M28.5551 41.3V18.6H21.5245V39.7H17.8469V22.6H10.8163V39.1V39.7H7.03061V38.4V26.6H0V36.5V44.7H28.5551V41.3Z" fill="#095FA8"/>
<path d="M27.6898 49.6V47.5H25.4184V53.8H28.0143C28.7714 53.8 29.3122 53.8 29.6367 53.7C29.9612 53.6 30.1776 53.5 30.3939 53.2C30.502 53 30.6102 52.5 30.6102 52V51.4C30.6102 50.9 30.502 50.5 30.3939 50.2C30.1776 50 29.9612 49.8 29.6367 49.7C29.3122 49.6 28.7714 49.6 28.0143 49.6H27.6898ZM28.4469 51.5V51.8C28.4469 52.1 28.4469 52.3 28.3388 52.4C28.2306 52.5 28.0143 52.5 27.6898 52.5V50.8C28.0143 50.8 28.2306 50.9 28.3388 50.9C28.3388 51 28.4469 51.2 28.4469 51.5Z" fill="#095FA8"/>
<path d="M24.6612 53.8V47.5H19.3612V53.8H21.6327V48.8H22.3898V53.8H24.6612Z" fill="#095FA8"/>
<path d="M34.2878 52.4C34.2878 52.6 34.3959 52.8 34.5041 53C34.6123 53.2 34.8286 53.4 35.0449 53.5C35.2612 53.6 35.4776 53.7 35.6939 53.7C35.9102 53.7 36.1265 53.7 36.451 53.7C37.1 53.7 37.6408 53.7 37.9653 53.6C38.2898 53.5 38.6143 53.4 38.8306 53.2C39.047 53 39.2633 52.8 39.2633 52.5C39.3714 52.2 39.3714 51.8 39.3714 51.2V49.7C39.3714 49.3 39.3714 49 39.2633 48.8C39.2633 48.6 39.047 48.4 38.8306 48.1C38.6143 47.9 38.2898 47.7 37.9653 47.6C37.6408 47.5 37.2082 47.4 36.6674 47.4C36.2347 47.4 35.8021 47.5 35.4776 47.6C35.1531 47.7 34.8286 47.9 34.6123 48.1C34.3959 48.3 34.2878 48.6 34.1796 48.8C34.1796 49.1 34.0714 49.4 34.0714 49.8V49.9H33.4225V47.5H31.151V53.8H33.4225V51.3H34.0714V51.5C34.2878 51.8 34.2878 52.1 34.2878 52.4ZM36.5592 49.2C36.5592 48.9 36.5592 48.7 36.5592 48.6C36.5592 48.5 36.6674 48.4 36.8837 48.4C36.9919 48.4 37.1 48.5 37.2082 48.6C37.2082 48.7 37.2082 48.9 37.2082 49.2V52.4C37.2082 52.5 37.2082 52.6 37.1 52.6C36.9919 52.7 36.9919 52.7 36.8837 52.7C36.6674 52.7 36.5592 52.5 36.5592 52.2V49.2Z" fill="#095FA8"/>
<path d="M7.57146 59.8C7.24697 61.6 7.03064 62.9 7.03064 63.8H8.11227C7.89595 62.7 7.67962 61.4 7.57146 59.8Z" fill="#095FA8"/>
<path d="M1.5143 26.2H2.7041L2.81226 26C3.78573 26.2 4.97552 26.5 5.84083 25.8C5.73267 25.3 4.97553 25.5 4.54287 25.2C4.32655 25.1 4.11022 25 4.00206 24.8H3.78573C4.11022 23.7 4.7592 22.7 5.30001 21.8C6.92246 20.1 6.92246 17.7 7.24695 15.4C7.35512 15.3 7.35512 15.3 7.46328 15.3C7.57144 15.3 7.57144 15.3 7.67961 15.3C8.0041 15.3 8.32859 15.3 8.32859 15C9.84287 15.1 11.0327 15.9 12.4388 16.1C12.4388 16.2 12.3306 16.4 12.2225 16.5C12.2225 16.9 12.1143 17.2 12.1143 17.5V17.8C12.0061 19.5 12.0061 20.5 12.3306 22.2H13.4123L13.5204 22C14.4939 22 15.6837 22.1 16.549 21.5C16.4408 21 15.5755 21.3 15.1429 21.1C14.9265 21 14.6021 20.9 14.4939 20.6C14.4939 18.8 14.6021 17 15.0347 15.3C13.6286 13.5 11.5735 13 9.84287 12.1C9.95103 11.9 9.84287 12 9.95104 11.8C9.51838 11.8 9.19389 11.4 8.76124 11.5C8.65308 11.1 8.65308 10.5 8.76124 10.1C8.8694 10.2 9.08573 10.3 9.19389 10.4C10.1674 10.7 11.1408 10.9 12.1143 11.3L12.4388 11.1C12.547 11.1 12.7633 11.3 12.7633 11.4H12.8714H12.9796C13.0878 11.3 13.0878 11.3 13.0878 11.2C13.3041 11 13.5204 10.6 13.4123 10.2C13.3041 10 13.1959 10 12.9796 10.1C12.8714 10.1 12.7633 10.1 12.6551 10.1V9.9L9.62654 8.7C9.51838 8.1 9.19389 7.6 8.97757 7.1C8.97757 5.9 7.78777 5.1 7.89593 3.9C8.11226 3.7 8.22042 3.7 8.43675 3.8C8.54491 3.8 8.65308 3.8 8.76124 3.8C8.8694 3.7 8.97757 3.6 8.97757 3.4C9.08573 3.4 9.08573 3.2 9.19389 3.2C9.19389 2.9 9.19389 2.6 9.51838 2.6C9.41022 2.3 9.19389 2.1 9.19389 1.8C9.41022 1.4 9.19389 0.9 9.19389 0.4C8.65308 0.3 8.22042 0 7.67961 0C7.46328 0 7.24695 0.1 7.03063 0.2C6.59797 0.6 6.38165 1.1 6.38165 1.5C6.38165 2.3 6.48981 2.4 6.48981 2.9C6.38165 3 6.38165 3.4 6.16532 3.2C5.73267 3.6 5.40818 4.1 4.97552 4.5C3.78573 5.4 2.16328 6.3 1.83879 7.9C1.94695 9.1 1.83879 10.3 1.83879 11.5H1.94695C2.05512 11.5 2.16328 11.5 2.16328 11.5C2.16328 11.5 2.16328 11.5 2.16328 11.6C2.16328 11.7 2.16328 11.7 2.16328 11.8H2.27144C2.48777 12.2 2.27144 12.7 2.37961 13.1C2.48777 13.2 2.48777 13.5 2.7041 13.5C2.7041 13.4 2.7041 13.4 2.7041 13.3L2.92042 13.6C3.02859 13.7 3.02859 13.5 3.13675 13.5C3.24491 13.5 3.13675 13.7 3.13675 13.7C3.13675 13.9 3.24491 14 3.35308 13.9L3.46124 12.9C3.5694 13.2 3.5694 13.6 3.5694 13.9H3.67757C3.89389 13.8 3.78573 13.5 3.78573 13.3C3.78573 12.7 3.89389 12.2 3.5694 11.6C3.67757 11.5 3.67757 11.5 3.67757 11.3C3.78573 11.3 3.78573 11.2 3.78573 11.2C4.00206 10.2 4.00206 9 4.11022 7.9L4.54287 7.6C4.86736 9.2 4.54287 10.7 4.21838 12.3C4.21838 12.6 4.32655 12.9 4.21838 13.2V13.8V13.5C4.21838 14.1 4.00206 14.8 4.43471 15.1C4.32655 16.6 4.32655 18.1 4.00206 19.5C3.02859 21.7 1.40614 23.8 1.5143 26.2Z" fill="#095FA8"/>
</svg>
